<svg width="214" height="197" viewBox="0 0 214 197" fill="none" xmlns="http://www.w3.org/2000/svg">
<path d="M89.2261 182.784C87.6764 183.233 86.1267 183.681 84.577 184.13C83.0273 184.579 81.4573 184.957 79.8668 185.265C68.5741 187.924 58.4972 186.871 49.6361 182.108C40.775 177.344 34.6517 169.116 31.2661 157.423C28.3291 147.28 27.8927 134.962 29.9569 120.469C32.5917 102.147 41.9518 82.7934 58.0371 62.4089C67.3235 50.7113 77.8742 40.48 89.6893 31.7148C101.464 22.8088 114.113 16.3979 127.637 12.4819C135.527 10.1977 143.018 9.17395 150.11 9.41078C157.343 9.60682 163.474 11.2674 168.501 14.3924C173.669 17.4767 177.192 22.2591 179.068 28.7396C179.721 30.9937 180.132 33.4702 180.303 36.1692C180.433 38.7273 180.211 41.3874 179.636 44.1495L178.597 49.2603C180.825 52.7377 182.51 56.4488 183.652 60.3934C188.751 78.0034 184.609 97.4492 171.227 118.731C150.794 151.521 123.46 172.872 89.2261 182.784ZM86.7344 178.925C114.488 170.889 137.66 152.041 156.251 122.38C169.634 101.098 174.928 82.9982 172.136 68.0797C167.135 78.2309 157.23 91.482 142.419 107.833L140.851 108.745C139.724 109.071 140.985 106.569 144.632 101.237L153.652 88.0899C157.5 82.395 160.725 77.1859 163.327 72.4624C165.93 67.739 168 63.5513 169.538 59.8994C166.268 52.2956 160.506 46.6347 152.253 42.9166C145.19 39.6175 137.367 37.9125 128.785 37.8018C124.554 37.9578 117.89 39.2002 108.793 41.5291C101.244 43.4092 97.409 44.138 97.2866 43.7153C97.2458 43.5745 97.3255 43.3223 97.5257 42.959C103.535 38.9286 109.569 36.0365 115.627 34.2825C118.444 33.4666 121.605 32.7806 125.108 32.2242C128.612 31.6679 132.479 31.3117 136.709 31.1558C152.521 30.3947 164.956 34.5815 174.014 43.7161C174.444 39.9271 174.149 36.2715 173.129 32.7495C171.457 26.9734 168.359 22.6026 163.836 19.6369C159.453 16.6304 154.159 14.9569 147.953 14.6162C141.887 14.2347 135.473 15.0229 128.711 16.9809C107.438 23.1403 88.9889 35.8876 73.3632 55.2229C58.8608 73.1641 49.2228 93.6669 44.449 116.731C40.9021 133.485 40.801 147.638 44.1458 159.191C49.5302 177.787 61.7337 184.865 80.7563 180.426C81.7832 180.282 82.7898 180.067 83.776 179.781C84.7621 179.496 85.7483 179.21 86.7344 178.925Z" fill="white"/>
</svg>
