<svg width="241" height="261" viewBox="0 0 241 261" fill="none" xmlns="http://www.w3.org/2000/svg">
<g opacity="0.88" filter="url(#filter0_f_64_168)">
<path d="M184.192 20.5486C182.698 19.5466 180.932 19.0326 179.136 19.0773C177.339 19.122 175.602 19.7233 174.163 20.7982C165.853 27.0032 157.789 33.4673 150.189 39.969C135.115 52.8857 121.128 67.1866 106.175 84.9801C98.9523 93.5937 96.2476 97.3617 88.1765 108.575L86.538 110.897C74.4185 127.621 67.1088 143.39 64.216 159.146C61.0273 176.409 63.3189 193.911 70.9974 211.111C80.0281 231.339 95.8744 245.916 115.616 252.15C135.526 258.453 158.369 256.281 181.634 245.895C204.81 235.548 221.524 219.553 229.944 199.656C238.155 180.3 237.701 158.446 228.635 138.138C223.093 125.725 215.148 116.172 207.481 106.959C191.334 87.5552 177.39 70.7948 187.779 29.9279C188.222 28.1864 188.115 26.3494 187.473 24.6698C186.83 22.9902 185.684 21.5504 184.192 20.5486ZM79.849 67.1675C48.7104 64.7113 12.9779 73.8812 11.4711 74.274C9.51223 74.7889 7.79561 75.9732 6.61812 77.6221C5.44063 79.2711 4.87633 81.281 5.02283 83.3041C5.17213 84.9541 5.7757 86.5309 6.76637 87.859C7.75703 89.1871 9.09595 90.2145 10.6342 90.8269C33.9031 100.554 42.1693 117.711 48.0272 136.438C48.1774 136.921 48.4748 137.344 48.8775 137.649C49.2802 137.954 49.7681 138.126 50.2726 138.139C50.7747 138.152 51.2679 138.007 51.6836 137.726C52.0992 137.444 52.4164 137.039 52.591 136.568C57.0547 124.744 63.6303 112.87 72.466 100.666L74.1101 98.3841C82.2108 87.1038 85.2259 82.8994 92.8988 73.7632L93.9439 72.5225C94.1865 72.2364 94.3508 71.8923 94.4209 71.5235C94.491 71.1547 94.4645 70.7739 94.344 70.4182C94.2235 70.0625 94.0131 69.7439 93.7333 69.4936C93.4534 69.2433 93.1137 69.0696 92.7472 68.9897C88.4929 68.0943 84.1839 67.4855 79.849 67.1675ZM81.1836 49.8387C83.3031 50.006 85.5843 50.2559 87.9803 50.5499C94.653 51.4281 101.224 52.9601 107.599 55.1239C107.996 55.2601 108.423 55.2788 108.829 55.1778C109.235 55.0767 109.603 54.8601 109.889 54.5542C119.031 44.7528 128.705 35.4638 138.869 26.7296C140.876 25.0118 142.906 23.3112 144.961 21.628C145.207 21.4249 145.406 21.1697 145.543 20.8806C145.68 20.5916 145.751 20.2758 145.752 19.9558C145.753 19.6358 145.683 19.3195 145.547 19.0294C145.412 18.7393 145.214 18.4827 144.969 18.2777C137.139 11.7512 131.292 7.17438 130.856 6.83869C129.613 5.86891 128.13 5.25554 126.566 5.06423C125.002 4.87292 123.416 5.11086 121.978 5.75259C121.032 6.17522 105.563 13.2953 88.6002 33.3377C85.08 37.5044 81.7873 41.8587 78.7367 46.3816C78.521 46.6978 78.3927 47.0655 78.3647 47.4475C78.3367 47.8295 78.41 48.2123 78.5772 48.5571C78.7444 48.9019 78.9996 49.1965 79.3169 49.411C79.6342 49.6255 80.0024 49.7524 80.3841 49.7788L81.1836 49.8387ZM62.0311 40.1317C64.5919 36.1481 67.293 32.2923 70.1086 28.5997C70.2191 28.4549 70.2915 28.2846 70.3189 28.1043C70.3464 27.924 70.3281 27.7397 70.2658 27.5683C70.2035 27.3968 70.0991 27.2438 69.9622 27.1232C69.8254 27.0026 69.6605 26.9184 69.4828 26.8783C52.2582 22.9146 38.8497 24.4762 38.0528 24.5819C36.2675 24.8027 34.5954 25.5731 33.2675 26.7867C31.9395 28.0004 31.0213 29.5974 30.6396 31.3572C29.2606 38.056 28.4648 44.8626 28.2613 51.7006C28.256 51.8613 28.2864 52.0212 28.3503 52.1687C28.4142 52.3163 28.5099 52.4479 28.6307 52.554C28.7514 52.6602 28.8941 52.7382 29.0485 52.7825C29.2029 52.8269 29.3651 52.8364 29.5235 52.8104C37.0605 51.5715 45.9328 50.4211 55.2971 49.8134C55.4666 49.8026 55.6312 49.7522 55.7775 49.6662C55.9239 49.5801 56.0481 49.4609 56.14 49.318L62.0311 40.1317Z" fill="#CB3245"/>
</g>
<defs>
<filter id="filter0_f_64_168" x="0" y="0" width="240.785" height="260.679" filterUnits="userSpaceOnUse" color-interpolation-filters="sRGB">
<feFlood flood-opacity="0" result="BackgroundImageFix"/>
<feBlend mode="normal" in="SourceGraphic" in2="BackgroundImageFix" result="shape"/>
<feGaussianBlur stdDeviation="2.5" result="effect1_foregroundBlur_64_168"/>
</filter>
</defs>
</svg>
