<svg width="244" height="258" viewBox="0 0 244 258" fill="none" xmlns="http://www.w3.org/2000/svg">
<g filter="url(#filter0_f_63_163)">
<path d="M179.439 16.2469C177.892 15.3303 176.099 14.9161 174.308 15.0615C172.518 15.2069 170.817 15.9046 169.44 17.0586C161.491 23.7198 153.803 30.626 146.579 37.5437C132.253 51.2855 119.091 66.3483 105.159 84.9523C98.4303 93.9574 95.9413 97.8712 88.5117 109.52L87.006 111.929C75.8435 129.308 69.4296 145.461 67.4249 161.354C65.2094 178.769 68.479 196.116 77.11 212.857C87.2609 232.547 103.9 246.213 123.96 251.33C144.192 256.506 166.877 253.057 189.523 241.382C212.083 229.752 227.873 212.845 235.164 192.507C242.276 172.721 240.598 150.926 230.407 131.159C224.178 119.077 215.71 109.983 207.537 101.215C190.328 82.7475 175.466 66.7955 183.547 25.4103C183.892 23.6466 183.682 21.8186 182.946 20.1776C182.211 18.5367 180.986 17.1635 179.439 16.2469ZM77.8751 68.6442C46.6477 67.9381 11.4858 79.0976 10.0033 79.5743C8.07644 80.1982 6.42893 81.4769 5.34577 83.1893C4.26261 84.9017 3.81192 86.94 4.07165 88.9518C4.31326 90.5908 5.0043 92.1313 6.06789 93.4017C7.13148 94.6722 8.52591 95.6229 10.096 96.148C33.8739 104.555 43.0892 121.222 49.9882 139.59C50.1652 140.064 50.4859 140.47 50.9051 140.752C51.3243 141.034 51.821 141.178 52.3255 141.163C52.8274 141.147 53.3118 140.975 53.711 140.671C54.1102 140.366 54.4042 139.945 54.5521 139.464C58.3457 127.408 64.245 115.185 72.3823 102.504L73.8959 100.134C81.3512 88.4166 84.1258 84.0498 91.2743 74.4977L92.2482 73.2003C92.4743 72.9011 92.619 72.5482 92.6684 72.1761C92.7177 71.804 92.6699 71.4253 92.5296 71.0769C92.3893 70.7285 92.1614 70.4222 91.868 70.188C91.5745 69.9537 91.2256 69.7994 90.8551 69.7401C86.5574 69.0847 82.221 68.7186 77.8751 68.6442ZM78.2358 51.2678C80.3613 51.316 82.653 51.4376 85.0617 51.5967C91.7731 52.0993 98.4199 53.2604 104.906 55.0632C105.31 55.177 105.737 55.1718 106.137 55.0481C106.537 54.9244 106.892 54.6875 107.161 54.366C115.738 44.0674 124.876 34.2505 134.534 24.96C136.442 23.1323 138.374 21.3206 140.33 19.5247C140.565 19.3081 140.749 19.0422 140.87 18.746C140.99 18.4497 141.044 18.1304 141.026 17.8108C141.009 17.4913 140.922 17.1794 140.77 16.8974C140.619 16.6153 140.407 16.3701 140.151 16.1793C131.967 10.1022 125.872 5.8605 125.419 5.54975C124.123 4.65123 122.608 4.12199 121.036 4.01869C119.464 3.91538 117.894 4.24188 116.494 4.96325C115.572 5.43831 100.528 13.4147 84.7153 34.3769C81.4343 38.7344 78.391 43.2665 75.5988 47.9534C75.4012 48.2811 75.2937 48.6555 75.2872 49.0385C75.2806 49.4215 75.3753 49.7995 75.5616 50.1344C75.7479 50.4693 76.0192 50.7491 76.348 50.9455C76.6768 51.1419 77.0515 51.2479 77.4342 51.2528L78.2358 51.2678ZM58.569 42.6502C60.9024 38.5292 63.383 34.528 65.9871 30.6834C66.0893 30.5326 66.152 30.3584 66.1693 30.1769C66.1866 29.9954 66.158 29.8124 66.0862 29.6447C66.0143 29.477 65.9015 29.3301 65.7581 29.2174C65.6148 29.1047 65.4454 29.0298 65.2657 28.9998C47.8459 26.0082 34.5462 28.3194 33.7564 28.4696C31.9863 28.7902 30.36 29.6531 29.1022 30.9394C27.8445 32.2256 27.0172 33.8716 26.7348 35.65C25.7337 42.4155 25.3209 49.2561 25.5011 56.0948C25.5049 56.2555 25.5442 56.4134 25.6163 56.5572C25.6884 56.7009 25.7913 56.8269 25.9178 56.9261C26.0443 57.0253 26.1911 57.0952 26.3478 57.1309C26.5044 57.1665 26.6669 57.1669 26.8236 57.132C34.2793 55.4723 43.0732 53.8262 52.3886 52.6943C52.5572 52.674 52.7187 52.6145 52.86 52.5204C53.0013 52.4262 53.1186 52.3002 53.2024 52.1524L58.569 42.6502Z" fill="#AF071C"/>
</g>
<defs>
<filter id="filter0_f_63_163" x="0" y="0" width="243.499" height="257.67" filterUnits="userSpaceOnUse" color-interpolation-filters="sRGB">
<feFlood flood-opacity="0" result="BackgroundImageFix"/>
<feBlend mode="normal" in="SourceGraphic" in2="BackgroundImageFix" result="shape"/>
<feGaussianBlur stdDeviation="2" result="effect1_foregroundBlur_63_163"/>
</filter>
</defs>
</svg>
