<svg width="308" height="191" viewBox="0 0 308 191" fill="none" xmlns="http://www.w3.org/2000/svg">
<path d="M87.75 190.5C86.9167 190.5 86.5 189.667 86.5 188C86.5 182.5 91.1667 168.5 100.5 146C103.333 139.5 106.167 133 109 126.5C111.833 120 114.583 113.5 117.25 107L128.75 73.25C130.583 67.5833 132 62.75 133 58.75C134.167 54.5833 134.75 51.1667 134.75 48.5C134.75 36.8333 131.417 28.0833 124.75 22.25C118.083 16.25 109.25 13.25 98.25 13.25C87.9167 13.25 77.6667 15.5833 67.5 20.25C57.5 24.75 48.3333 30.9167 40 38.75C31.8333 46.5833 25.25 55.3333 20.25 65C13.0833 78.6667 9.5 91.1667 9.5 102.5C9.5 110.333 11.4167 117.417 15.25 123.75C19.0833 130.083 24.0833 134.417 30.25 136.75C34.5833 138.25 38.8333 139 43 139C48.8333 139 54.25 137.75 59.25 135.25C64.25 132.583 68.25 128.917 71.25 124.25C74.4167 119.583 76 114.333 76 108.5C76 107.833 76 107.167 76 106.5C76 105.667 75.9167 104.917 75.75 104.25C75.0833 102.25 75.5833 101.25 77.25 101.25C79.0833 101.25 80.0833 102.583 80.25 105.25C80.4167 105.917 80.5 106.583 80.5 107.25C80.6667 107.917 80.75 108.667 80.75 109.5C80.75 115.5 78.75 121.083 74.75 126.25C70.75 131.417 65.5833 135.667 59.25 139C53.0833 142.167 46.6667 143.75 40 143.75C33.1667 143.75 26.5833 142.083 20.25 138.75C6.75 131.417 -3.12924e-07 118.667 -3.12924e-07 100.5C-3.12924e-07 87.5 3.5 74.9167 10.5 62.75C16.8333 51.75 25.0833 42.1667 35.25 34C45.4167 25.8333 56.5833 19.5 68.75 15C80.9167 10.3333 93 7.99999 105 7.99999C113.333 7.99999 120.833 9.33333 127.5 12C134.167 14.5 139.417 18.4167 143.25 23.75C147.25 28.9167 149.25 35.5833 149.25 43.75C149.25 59.25 142.25 82.5 128.25 113.5C112.25 148.667 104.25 168.417 104.25 172.75C104.25 173.917 104.667 174.333 105.5 174C109.833 171.167 129.417 148.833 164.25 107C182.083 85.6667 197.167 68.4167 209.5 55.25C222 41.9167 231.833 32.6667 239 27.5C245.333 22.6667 250.833 18.75 255.5 15.75C260.167 12.5833 263.917 10.1667 266.75 8.5C277.083 2.83333 286.583 -7.27177e-06 295.25 -7.27177e-06C299.083 -7.27177e-06 302 0.416659 304 1.24999C306.167 1.91666 307.25 3.91666 307.25 7.24999C307.25 9.41666 306.5 10.5 305 10.5C304.5 10.5 303.333 10.1667 301.5 9.49999C299.667 8.66666 297.833 8.24999 296 8.24999C287.167 8.24999 277.917 10.8333 268.25 16C248.917 26.3333 226.75 44.8333 201.75 71.5C194.583 79.1667 186.167 88.6667 176.5 100C167 111.333 156.25 124.583 144.25 139.75C125.25 163.75 113.833 176.833 110 179C102.833 183.167 97.4167 186.083 93.75 187.75C90.25 189.583 88.25 190.5 87.75 190.5Z" fill="white"/>
</svg>
