<svg width="680" height="249" viewBox="0 0 680 249" fill="none" xmlns="http://www.w3.org/2000/svg">
<g opacity="0.26">
<line x1="-18.7402" y1="218.439" x2="39.4471" y2="218.322" stroke="#ED581E" stroke-width="1.38428"/>
<line x1="10.9885" y1="189.977" x2="11.1057" y2="248.164" stroke="#ED581E" stroke-width="1.38428"/>
<line x1="-18.8574" y1="160.252" x2="39.3299" y2="160.135" stroke="#ED581E" stroke-width="1.38428"/>
<line x1="10.8713" y1="131.791" x2="10.9885" y2="189.979" stroke="#ED581E" stroke-width="1.38428"/>
<line x1="-18.9748" y1="102.064" x2="39.2125" y2="101.947" stroke="#ED581E" stroke-width="1.38428"/>
<line x1="10.7542" y1="73.6027" x2="10.8713" y2="131.79" stroke="#ED581E" stroke-width="1.38428"/>
<line x1="-19.092" y1="43.8785" x2="39.0953" y2="43.7613" stroke="#ED581E" stroke-width="1.38428"/>
<line x1="10.637" y1="15.4177" x2="10.7541" y2="73.605" stroke="#ED581E" stroke-width="1.38428"/>
<line x1="10.5193" y1="-42.7693" x2="10.6365" y2="15.418" stroke="#ED581E" stroke-width="1.38428"/>
<line x1="39.4473" y1="218.322" x2="97.6346" y2="218.205" stroke="#ED581E" stroke-width="1.38428"/>
<line x1="69.176" y1="189.86" x2="69.2932" y2="248.047" stroke="#ED581E" stroke-width="1.38428"/>
<line x1="39.3301" y1="160.135" x2="97.5174" y2="160.018" stroke="#ED581E" stroke-width="1.38428"/>
<line x1="69.0588" y1="131.674" x2="69.176" y2="189.861" stroke="#ED581E" stroke-width="1.38428"/>
<line x1="39.213" y1="101.947" x2="97.4002" y2="101.83" stroke="#ED581E" stroke-width="1.38428"/>
<line x1="68.9417" y1="73.4855" x2="69.0588" y2="131.673" stroke="#ED581E" stroke-width="1.38428"/>
<line x1="39.0958" y1="43.7614" x2="97.283" y2="43.6442" stroke="#ED581E" stroke-width="1.38428"/>
<line x1="68.8245" y1="15.3005" x2="68.9416" y2="73.4878" stroke="#ED581E" stroke-width="1.38428"/>
<line x1="68.707" y1="-42.8865" x2="68.8242" y2="15.3007" stroke="#ED581E" stroke-width="1.38428"/>
<line x1="97.6126" y1="218.205" x2="155.8" y2="218.088" stroke="#ED581E" stroke-width="1.38428"/>
<line x1="127.341" y1="189.743" x2="127.458" y2="247.93" stroke="#ED581E" stroke-width="1.38428"/>
<line x1="97.4952" y1="160.018" x2="155.682" y2="159.901" stroke="#ED581E" stroke-width="1.38428"/>
<line x1="127.224" y1="131.557" x2="127.341" y2="189.744" stroke="#ED581E" stroke-width="1.38428"/>
<line x1="97.378" y1="101.83" x2="155.565" y2="101.713" stroke="#ED581E" stroke-width="1.38428"/>
<line x1="127.107" y1="73.3684" x2="127.224" y2="131.556" stroke="#ED581E" stroke-width="1.38428"/>
<line x1="97.2608" y1="43.6445" x2="155.448" y2="43.5273" stroke="#ED581E" stroke-width="1.38428"/>
<line x1="126.99" y1="15.1836" x2="127.107" y2="73.3709" stroke="#ED581E" stroke-width="1.38428"/>
<line x1="126.872" y1="-43.0037" x2="126.989" y2="15.1836" stroke="#ED581E" stroke-width="1.38428"/>
<line x1="155.8" y1="218.088" x2="213.987" y2="217.971" stroke="#ED581E" stroke-width="1.38428"/>
<line x1="185.529" y1="189.626" x2="185.646" y2="247.813" stroke="#ED581E" stroke-width="1.38428"/>
<line x1="155.682" y1="159.901" x2="213.869" y2="159.784" stroke="#ED581E" stroke-width="1.38428"/>
<line x1="185.411" y1="131.44" x2="185.528" y2="189.627" stroke="#ED581E" stroke-width="1.38428"/>
<line x1="155.565" y1="101.713" x2="213.752" y2="101.595" stroke="#ED581E" stroke-width="1.38428"/>
<line x1="185.294" y1="73.2512" x2="185.411" y2="131.438" stroke="#ED581E" stroke-width="1.38428"/>
<line x1="155.447" y1="43.5274" x2="213.635" y2="43.4102" stroke="#ED581E" stroke-width="1.38428"/>
<line x1="185.176" y1="15.0665" x2="185.293" y2="73.2538" stroke="#ED581E" stroke-width="1.38428"/>
<line x1="185.059" y1="-43.1208" x2="185.176" y2="15.0665" stroke="#ED581E" stroke-width="1.38428"/>
<line x1="213.987" y1="217.971" x2="272.175" y2="217.853" stroke="#ED581E" stroke-width="1.38428"/>
<line x1="243.716" y1="189.509" x2="243.833" y2="247.696" stroke="#ED581E" stroke-width="1.38428"/>
<line x1="213.869" y1="159.784" x2="272.057" y2="159.667" stroke="#ED581E" stroke-width="1.38428"/>
<line x1="243.598" y1="131.323" x2="243.715" y2="189.51" stroke="#ED581E" stroke-width="1.38428"/>
<line x1="213.753" y1="101.595" x2="271.94" y2="101.478" stroke="#ED581E" stroke-width="1.38428"/>
<line x1="243.481" y1="73.134" x2="243.598" y2="131.321" stroke="#ED581E" stroke-width="1.38428"/>
<line x1="213.635" y1="43.4102" x2="271.822" y2="43.293" stroke="#ED581E" stroke-width="1.38428"/>
<line x1="243.364" y1="14.9494" x2="243.481" y2="73.1366" stroke="#ED581E" stroke-width="1.38428"/>
<line x1="243.247" y1="-43.2379" x2="243.364" y2="14.9494" stroke="#ED581E" stroke-width="1.38428"/>
<line x1="272.175" y1="217.853" x2="330.362" y2="217.736" stroke="#ED581E" stroke-width="1.38428"/>
<line x1="301.905" y1="189.391" x2="302.022" y2="247.578" stroke="#ED581E" stroke-width="1.38428"/>
<line x1="272.058" y1="159.667" x2="330.245" y2="159.55" stroke="#ED581E" stroke-width="1.38428"/>
<line x1="301.787" y1="131.206" x2="301.905" y2="189.393" stroke="#ED581E" stroke-width="1.38428"/>
<line x1="271.941" y1="101.478" x2="330.128" y2="101.361" stroke="#ED581E" stroke-width="1.38428"/>
<line x1="301.67" y1="73.0167" x2="301.787" y2="131.204" stroke="#ED581E" stroke-width="1.38428"/>
<line x1="271.824" y1="43.293" x2="330.011" y2="43.1758" stroke="#ED581E" stroke-width="1.38428"/>
<line x1="301.553" y1="14.8321" x2="301.67" y2="73.0194" stroke="#ED581E" stroke-width="1.38428"/>
<line x1="301.436" y1="-43.3551" x2="301.553" y2="14.8321" stroke="#ED581E" stroke-width="1.38428"/>
<line x1="330.353" y1="217.736" x2="388.541" y2="217.619" stroke="#ED581E" stroke-width="1.38428"/>
<line x1="360.083" y1="189.274" x2="360.2" y2="247.461" stroke="#ED581E" stroke-width="1.38428"/>
<line x1="330.236" y1="159.55" x2="388.423" y2="159.432" stroke="#ED581E" stroke-width="1.38428"/>
<line x1="359.966" y1="131.088" x2="360.083" y2="189.276" stroke="#ED581E" stroke-width="1.38428"/>
<line x1="330.118" y1="101.361" x2="388.306" y2="101.244" stroke="#ED581E" stroke-width="1.38428"/>
<line x1="359.848" y1="72.8996" x2="359.965" y2="131.087" stroke="#ED581E" stroke-width="1.38428"/>
<line x1="330.001" y1="43.1758" x2="388.188" y2="43.0587" stroke="#ED581E" stroke-width="1.38428"/>
<line x1="359.731" y1="14.715" x2="359.848" y2="72.9023" stroke="#ED581E" stroke-width="1.38428"/>
<line x1="359.614" y1="-43.4725" x2="359.731" y2="14.7148" stroke="#ED581E" stroke-width="1.38428"/>
<line x1="388.542" y1="217.619" x2="446.729" y2="217.502" stroke="#ED581E" stroke-width="1.38428"/>
<line x1="418.27" y1="189.157" x2="418.387" y2="247.344" stroke="#ED581E" stroke-width="1.38428"/>
<line x1="388.424" y1="159.432" x2="446.611" y2="159.315" stroke="#ED581E" stroke-width="1.38428"/>
<line x1="418.152" y1="130.971" x2="418.269" y2="189.159" stroke="#ED581E" stroke-width="1.38428"/>
<line x1="388.307" y1="101.244" x2="446.494" y2="101.127" stroke="#ED581E" stroke-width="1.38428"/>
<line x1="418.034" y1="72.7825" x2="418.152" y2="130.97" stroke="#ED581E" stroke-width="1.38428"/>
<line x1="388.19" y1="43.0585" x2="446.377" y2="42.9413" stroke="#ED581E" stroke-width="1.38428"/>
<line x1="417.917" y1="14.5977" x2="418.034" y2="72.785" stroke="#ED581E" stroke-width="1.38428"/>
<line x1="417.8" y1="-43.5897" x2="417.917" y2="14.5976" stroke="#ED581E" stroke-width="1.38428"/>
<line x1="446.729" y1="217.501" x2="504.916" y2="217.384" stroke="#ED581E" stroke-width="1.38428"/>
<line x1="476.457" y1="189.039" x2="476.574" y2="247.227" stroke="#ED581E" stroke-width="1.38428"/>
<line x1="446.611" y1="159.315" x2="504.799" y2="159.198" stroke="#ED581E" stroke-width="1.38428"/>
<line x1="476.339" y1="130.854" x2="476.456" y2="189.041" stroke="#ED581E" stroke-width="1.38428"/>
<line x1="446.494" y1="101.127" x2="504.681" y2="101.009" stroke="#ED581E" stroke-width="1.38428"/>
<line x1="476.222" y1="72.6652" x2="476.339" y2="130.852" stroke="#ED581E" stroke-width="1.38428"/>
<line x1="446.377" y1="42.9413" x2="504.565" y2="42.8241" stroke="#ED581E" stroke-width="1.38428"/>
<line x1="476.105" y1="14.4805" x2="476.222" y2="72.6677" stroke="#ED581E" stroke-width="1.38428"/>
<line x1="475.988" y1="-43.7069" x2="476.105" y2="14.4804" stroke="#ED581E" stroke-width="1.38428"/>
<line x1="504.913" y1="217.384" x2="563.1" y2="217.267" stroke="#ED581E" stroke-width="1.38428"/>
<line x1="534.641" y1="188.922" x2="534.759" y2="247.11" stroke="#ED581E" stroke-width="1.38428"/>
<line x1="504.795" y1="159.198" x2="562.982" y2="159.081" stroke="#ED581E" stroke-width="1.38428"/>
<line x1="534.524" y1="130.737" x2="534.641" y2="188.924" stroke="#ED581E" stroke-width="1.38428"/>
<line x1="504.678" y1="101.009" x2="562.865" y2="100.892" stroke="#ED581E" stroke-width="1.38428"/>
<line x1="534.406" y1="72.548" x2="534.524" y2="130.735" stroke="#ED581E" stroke-width="1.38428"/>
<line x1="504.561" y1="42.8238" x2="562.748" y2="42.7066" stroke="#ED581E" stroke-width="1.38428"/>
<line x1="534.289" y1="14.363" x2="534.406" y2="72.5502" stroke="#ED581E" stroke-width="1.38428"/>
<line x1="534.172" y1="-43.8241" x2="534.29" y2="14.3632" stroke="#ED581E" stroke-width="1.38428"/>
<line x1="563.1" y1="217.267" x2="621.287" y2="217.15" stroke="#ED581E" stroke-width="1.38428"/>
<line x1="592.828" y1="188.805" x2="592.945" y2="246.992" stroke="#ED581E" stroke-width="1.38428"/>
<line x1="562.983" y1="159.081" x2="621.17" y2="158.964" stroke="#ED581E" stroke-width="1.38428"/>
<line x1="592.71" y1="130.62" x2="592.827" y2="188.807" stroke="#ED581E" stroke-width="1.38428"/>
<line x1="562.865" y1="100.892" x2="621.052" y2="100.775" stroke="#ED581E" stroke-width="1.38428"/>
<line x1="592.593" y1="72.4308" x2="592.71" y2="130.618" stroke="#ED581E" stroke-width="1.38428"/>
<line x1="562.748" y1="42.707" x2="620.936" y2="42.5899" stroke="#ED581E" stroke-width="1.38428"/>
<line x1="592.476" y1="14.2462" x2="592.593" y2="72.4335" stroke="#ED581E" stroke-width="1.38428"/>
<line x1="592.359" y1="-43.9412" x2="592.476" y2="14.2461" stroke="#ED581E" stroke-width="1.38428"/>
<line x1="621.286" y1="217.149" x2="679.474" y2="217.032" stroke="#ED581E" stroke-width="1.38428"/>
<line x1="651.015" y1="188.688" x2="651.132" y2="246.875" stroke="#ED581E" stroke-width="1.38428"/>
<line x1="621.169" y1="158.964" x2="679.356" y2="158.846" stroke="#ED581E" stroke-width="1.38428"/>
<line x1="650.898" y1="130.503" x2="651.015" y2="188.69" stroke="#ED581E" stroke-width="1.38428"/>
<line x1="621.053" y1="100.775" x2="679.24" y2="100.658" stroke="#ED581E" stroke-width="1.38428"/>
<line x1="650.781" y1="72.3137" x2="650.898" y2="130.501" stroke="#ED581E" stroke-width="1.38428"/>
<line x1="620.936" y1="42.589" x2="679.123" y2="42.4718" stroke="#ED581E" stroke-width="1.38428"/>
<line x1="650.663" y1="14.1276" x2="650.78" y2="72.3149" stroke="#ED581E" stroke-width="1.38428"/>
<line x1="650.546" y1="-44.0585" x2="650.663" y2="14.1288" stroke="#ED581E" stroke-width="1.38428"/>
</g>
</svg>
