<svg width="234" height="231" viewBox="0 0 234 231" fill="none" xmlns="http://www.w3.org/2000/svg">
<path d="M120.622 207.886C110.89 211.818 101.312 214.251 91.8895 215.186C82.6121 216.062 74.3317 215.014 67.0483 212.043C59.9101 209.013 54.7858 203.648 51.6753 195.95C49.2691 189.994 48.7512 183.275 50.1217 175.794C54.917 149.187 71.355 124.212 99.4356 100.87C92.4119 97.2868 87.4915 92.009 84.6744 85.0366C82.3856 79.3715 81.9448 73.8891 83.3519 68.5894C86.021 58.0487 92.298 47.6555 102.183 37.4097C107.836 31.7462 113.827 26.707 120.153 22.2921C126.626 17.8185 133.493 14.1145 140.756 11.1801C149.762 7.54145 157.176 6.23568 162.998 7.26282C168.965 8.23129 173.005 11.3302 175.118 16.5595C176.585 20.191 176.918 23.9427 176.117 27.8148C175.403 31.4829 173.974 34.8481 171.832 37.9102C169.631 40.8271 167.005 42.9017 163.955 44.1342C159.452 45.9535 156.76 45.7738 155.88 43.5949C155.352 42.2875 156.032 41.2524 157.92 40.4895C158.501 40.2547 159.286 40.1065 160.275 40.0449C161.351 39.7793 162.106 39.5585 162.542 39.3825C165.593 38.15 167.634 35.4664 168.667 31.3317C169.7 27.197 169.571 23.5318 168.28 20.3361C166.402 15.6878 162.801 13.2566 157.476 13.0423C152.297 12.7693 146.947 13.7479 141.427 15.978C127.628 21.5534 115.909 31.4419 106.27 45.6433C96.0225 60.4287 93.2169 73.5591 97.8533 85.0345C99.5553 89.247 102.592 92.5821 106.965 95.0398C111.403 91.3879 115.684 88.3911 119.807 86.0494C124.017 83.5038 128.155 81.4093 132.222 79.766C146.167 74.132 154.225 74.0022 156.397 79.3768C157.395 81.8462 157.258 84.4359 155.987 87.1459C154.658 89.7106 152.601 92.147 149.816 94.4549C147.118 96.5589 144.171 98.2565 140.975 99.5477C137.634 100.897 133.754 101.958 129.334 102.73C124.915 103.502 120.524 103.924 116.16 103.998C111.796 104.071 107.926 103.692 104.548 102.86C92.4784 112.298 82.8142 123.3 75.5556 135.864C68.3835 148.224 64.3095 160.515 63.3336 172.737C62.8039 179.372 63.5954 185.304 65.7082 190.533C68.2905 196.925 72.219 201.42 77.4937 204.02C82.7685 206.621 88.7651 207.662 95.4837 207.144C102.347 206.567 109.411 204.812 116.674 201.877C128.73 197.006 139.922 190.203 150.248 181.469C160.634 172.88 168.513 163.106 173.886 152.149C181.254 137.345 182.678 124.35 178.159 113.165C174.579 104.304 168.504 101.605 159.933 105.068C155.43 106.887 150.888 110.074 146.308 114.628C141.668 119.037 137.642 124.128 134.229 129.9C130.961 135.613 128.639 141.367 127.263 147.161C125.887 152.956 126.137 158.177 128.015 162.825C129.893 167.473 133.072 169.484 137.55 168.858C139.237 168.852 140.257 169.285 140.609 170.156C141.078 171.318 140.224 172.34 138.045 173.22C130.346 176.33 124.765 173.6 121.303 165.03C119.014 159.365 118.513 153.316 119.8 146.882C121.087 140.448 123.552 134.214 127.197 128.179C130.987 122.085 135.565 116.687 140.931 111.985C146.238 107.137 151.797 103.539 157.607 101.192C164.434 98.4336 170.352 97.8167 175.362 99.3412C180.312 100.72 184.137 104.751 186.837 111.433C192.295 124.942 189.949 140.675 179.8 158.631C173.469 170.144 165.24 179.89 155.115 187.867C145.048 195.99 133.55 202.662 120.622 207.886ZM137.077 95.5464C144.921 92.3772 147.934 88.5411 146.114 84.0381C145.293 82.0045 140.96 82.5723 133.116 85.7414C129.63 87.15 126.086 88.8351 122.485 90.7967C119.03 92.6997 115.561 94.7773 112.077 97.0295C120.319 99.4447 128.652 98.9503 137.077 95.5464Z" fill="white"/>
</svg>
