<svg width="238" height="222" viewBox="0 0 238 222" fill="none" xmlns="http://www.w3.org/2000/svg">
<path d="M156.499 210.633C146.822 211.391 136.77 210.701 126.345 208.563C115.932 206.597 105.93 203.208 96.3384 198.396C86.9192 193.571 78.6284 187.614 71.4659 180.525C58.7252 195.433 46.1339 203.375 33.6921 204.35C27.2983 204.851 22.3973 203.322 18.9888 199.765C15.5939 196.38 13.6662 191.749 13.2057 185.874C12.3525 174.987 15.4975 161.875 22.6408 146.536C29.3334 132.103 34.9854 124.357 39.597 123.3C43.053 123.03 46.8732 126.294 51.0573 133.095L69.8658 163.438C78.0628 150.451 86.6172 136.48 95.5292 121.525C80.8582 116.241 73.0486 107.552 72.1006 95.4555C71.6942 90.2714 72.5314 85.4245 74.612 80.9148C76.8519 76.2188 79.8508 72.3326 83.6085 69.2562C87.3663 66.1798 91.3188 64.4791 95.4661 64.154C101.169 63.7071 105.526 66.0605 108.538 71.2142C108.924 71.7055 108.965 72.224 108.66 72.7695C108.527 73.3014 108.282 73.4945 107.923 73.3488C106.605 72.0612 104.782 70.987 102.454 70.1263C100.126 69.2655 98.0122 68.9096 96.1113 69.0586C92.4824 69.3431 89.2279 71.076 86.3477 74.2574C83.6268 77.2525 81.5512 80.7187 80.1212 84.6558C78.8639 88.5793 78.5232 91.9964 79.0991 94.907C79.7898 103.72 86.6135 110.922 99.57 116.513C102.169 111.963 105 107.047 108.064 101.765C111.113 96.3097 114.395 90.4888 117.909 84.302C148.342 31.1481 174.964 3.67724 197.774 1.88941C213.844 0.629797 222.469 7.51694 223.647 22.5508C224.717 36.2023 219.324 52.7945 207.467 72.3273C201.619 82.0006 193.967 90.8589 184.514 98.9022C175.06 106.945 164.886 113.567 153.993 118.768C143.258 123.782 132.707 126.695 122.339 127.508C119.919 127.698 117.493 127.801 115.061 127.818C112.787 127.648 110.673 127.292 108.718 126.75C104.685 132.977 100.016 139.95 94.7096 147.669C89.4031 155.387 83.5528 163.93 77.1586 173.298C80.6077 177.375 85.3528 181.349 91.3939 185.222C97.6078 189.082 104.472 192.369 111.987 195.083C119.516 197.971 126.904 200.173 134.152 201.692C141.399 203.21 147.874 203.746 153.576 203.299C160.143 202.784 166.13 201.532 171.538 199.544C176.959 197.728 181.269 195.043 184.468 191.489C187.68 188.107 189.083 183.825 188.677 178.641C188.623 177.949 188.569 177.258 188.515 176.567C188.46 175.876 188.32 175.191 188.093 174.514C188.066 174.168 187.959 173.916 187.773 173.756C187.759 173.584 187.746 173.411 187.732 173.238C187.597 171.51 188.047 170.605 189.084 170.524C190.812 170.389 192.303 171.663 193.556 174.346C194.796 176.857 195.477 178.89 195.599 180.445C196.019 185.802 194.311 190.63 190.475 194.93C186.653 199.402 181.633 203.012 175.416 205.76C169.371 208.494 163.065 210.118 156.499 210.633ZM119.996 120.911C128.809 120.22 138.071 117.495 147.782 112.735C157.48 107.802 166.478 101.707 174.776 94.4494C183.233 87.0058 189.922 79.1792 194.843 70.9697C208.848 47.7911 215.403 30.4993 214.509 19.0943C214.13 14.2558 212.47 10.8217 209.529 8.79195C206.588 6.76221 203.13 5.9031 199.156 6.21462C190.516 6.89183 180.371 14.9893 168.721 30.5071C165.112 35.4843 160.37 42.6367 154.494 51.9644C148.778 61.1057 142.014 72.4154 134.203 85.8936C131.14 91.1758 127.751 96.7443 124.038 102.599C120.324 108.454 116.451 114.495 112.418 120.722C114.878 121.051 117.404 121.114 119.996 120.911ZM33.6619 197.311C36.9452 197.053 40.4793 195.559 44.2641 192.828C48.2353 190.257 51.9863 187.094 55.5171 183.34C59.0479 179.586 61.8942 175.973 64.0561 172.5C61.366 169.233 58.4489 165.289 55.3048 160.667C52.1607 156.046 48.6965 150.666 44.9121 144.53C40.2875 136.547 36.9722 133.069 34.9663 134.095C31.8965 134.858 28.9602 140.651 26.1576 151.477C23.3549 162.302 22.3125 172.294 23.0303 181.453C23.8971 192.512 27.441 197.798 33.6619 197.311Z" fill="white"/>
</svg>
