<svg width="263" height="252" viewBox="0 0 263 252" fill="none" xmlns="http://www.w3.org/2000/svg">
<g opacity="0.88" filter="url(#filter0_f_64_166)">
<path d="M152.344 5.24749C150.597 4.82152 148.761 4.94767 147.091 5.60856C145.42 6.26945 143.996 7.43256 143.015 8.93767C137.352 17.626 132.01 26.4726 127.115 35.1952C117.415 52.5149 109.213 70.7593 101.306 92.6156C97.4938 103.19 96.2532 107.66 92.5402 120.968L91.8019 123.711C86.1875 143.588 84.7588 160.909 87.4721 176.697C90.4271 194.002 98.6092 209.643 111.744 223.143C127.192 239.021 147.09 247.245 167.771 246.295C188.633 245.351 209.329 235.442 227.591 217.675C245.782 199.976 255.961 179.202 257.01 157.622C258.048 136.622 250.092 116.263 234.583 100.322C225.104 90.5792 214.354 84.348 203.981 78.3414C182.138 65.6896 163.273 54.7603 158.943 12.8164C158.759 11.0289 158.026 9.34127 156.844 7.98584C155.662 6.63042 154.09 5.67376 152.344 5.24749ZM70.4548 84.965C40.3767 93.3887 9.99218 114.309 8.71299 115.197C7.05149 116.356 5.84807 118.059 5.31087 120.013C4.77367 121.966 4.93648 124.048 5.77113 125.896C6.47983 127.394 7.58975 128.666 8.97738 129.572C10.365 130.477 11.9759 130.98 13.6309 131.025C38.8266 132.139 52.4985 145.397 64.4503 160.958C64.7577 161.36 65.1828 161.655 65.666 161.802C66.1491 161.95 66.6661 161.943 67.1444 161.782C67.6201 161.621 68.0334 161.315 68.3265 160.907C68.6196 160.5 68.778 160.011 68.7795 159.508C68.8956 146.87 70.9772 133.457 75.0666 118.956L75.8236 116.247C79.5414 102.867 80.9231 97.8808 84.9781 86.6602L85.5317 85.1354C85.6608 84.7833 85.6965 84.4036 85.6352 84.0332C85.574 83.6629 85.4179 83.3145 85.1822 83.0221C84.9465 82.7297 84.6392 82.5032 84.2902 82.3646C83.9413 82.226 83.5625 82.1801 83.1909 82.2313C78.8887 82.8566 74.6337 83.7699 70.4548 84.965ZM65.7366 68.2375C67.784 67.6643 70.0116 67.1129 72.3622 66.5633C78.9288 65.0885 85.6255 64.2624 92.3559 64.097C92.7748 64.0883 93.182 63.9588 93.5285 63.7239C93.8751 63.4891 94.1462 63.1589 94.3091 62.7732C99.5134 50.4222 105.395 38.3685 111.926 26.667C113.219 24.3629 114.539 22.0668 115.887 19.7788C116.049 19.5031 116.148 19.195 116.176 18.8766C116.205 18.5581 116.163 18.237 116.054 17.9364C115.944 17.6357 115.77 17.3628 115.543 17.1371C115.316 16.9114 115.042 16.7386 114.741 16.6309C105.142 13.2019 98.0751 10.9203 97.5509 10.7551C96.0494 10.2732 94.4458 10.2084 92.9118 10.5676C91.3778 10.9269 89.9711 11.6967 88.8422 12.7946C88.0992 13.5176 76.0315 25.5316 67.0132 50.1916C65.1443 55.3161 63.5537 60.5383 62.2483 65.8353C62.1548 66.2064 62.161 66.5958 62.2664 66.9641C62.3717 67.3324 62.5724 67.6665 62.8482 67.9326C63.124 68.1986 63.465 68.3873 63.8368 68.4793C64.2086 68.5714 64.598 68.5636 64.9654 68.4568L65.7366 68.2375ZM44.4122 65.7245C45.4436 61.1024 46.6507 56.552 48.0215 52.1154C48.0754 51.9414 48.0846 51.7565 48.0482 51.5778C48.0119 51.3992 47.9313 51.2324 47.8137 51.0929C47.6961 50.9535 47.5453 50.8458 47.3753 50.7797C47.2053 50.7137 47.0215 50.6915 46.8409 50.7151C29.3053 52.9291 17.2561 59.0153 16.5444 59.3891C14.9445 60.2116 13.6402 61.5109 12.8118 63.1078C11.9834 64.7047 11.6717 66.5203 11.9197 68.3039C12.9334 75.0676 14.5317 81.7316 16.6968 88.221C16.7472 88.3736 16.8309 88.5132 16.9417 88.6297C17.0525 88.7463 17.1877 88.8368 17.3376 88.8948C17.4875 88.9529 17.6484 88.977 17.8086 88.9654C17.9688 88.9538 18.1244 88.9069 18.2641 88.8279C24.9126 85.0678 32.8453 80.9307 41.4267 77.1336C41.5821 77.065 41.7192 76.961 41.827 76.8298C41.9347 76.6986 42.0102 76.5439 42.0472 76.3781L44.4122 65.7245Z" fill="#AF071C"/>
</g>
<defs>
<filter id="filter0_f_64_166" x="0" y="0" width="262.1" height="251.369" filterUnits="userSpaceOnUse" color-interpolation-filters="sRGB">
<feFlood flood-opacity="0" result="BackgroundImageFix"/>
<feBlend mode="normal" in="SourceGraphic" in2="BackgroundImageFix" result="shape"/>
<feGaussianBlur stdDeviation="2.5" result="effect1_foregroundBlur_64_166"/>
</filter>
</defs>
</svg>
