<svg width="48" height="48" viewBox="0 0 48 48" fill="none" xmlns="http://www.w3.org/2000/svg">
<g clip-path="url(#clip0_64_164)">
<path d="M22.3822 1.13025C22.9322 -0.37775 25.0662 -0.37575 25.6182 1.13025L29.4543 11.6062C30.0371 13.1979 30.9599 14.6434 32.1585 15.842C33.3571 17.0406 34.8026 17.9634 36.3943 18.5462L46.8683 22.3822C48.3783 22.9322 48.3783 25.0662 46.8683 25.6182L36.3943 29.4543C34.8026 30.0371 33.3571 30.9599 32.1585 32.1585C30.9599 33.3571 30.0371 34.8026 29.4543 36.3943L25.6182 46.8683C25.0662 48.3783 22.9322 48.3783 22.3822 46.8683L18.5462 36.3943C17.9634 34.8026 17.0406 33.3571 15.842 32.1585C14.6434 30.9599 13.1979 30.0371 11.6062 29.4543L1.13025 25.6182C-0.37575 25.0662 -0.37775 22.9342 1.13025 22.3822L11.6062 18.5462C13.1979 17.9634 14.6434 17.0406 15.842 15.842C17.0406 14.6434 17.9634 13.1979 18.5462 11.6062L22.3822 1.13025ZM21.3722 12.6423C20.6384 14.6441 19.4772 16.462 17.9696 17.9696C16.462 19.4772 14.6441 20.6384 12.6423 21.3722L5.46025 24.0002L12.6423 26.6302C14.6447 27.3629 16.4633 28.5237 17.9711 30.0314C19.4788 31.5392 20.6396 33.3578 21.3722 35.3603L24.0002 42.5382L26.6302 35.3603C27.3629 33.3578 28.5237 31.5392 30.0314 30.0314C31.5392 28.5237 33.3578 27.3629 35.3603 26.6302L42.5382 24.0002L35.3603 21.3722C33.3578 20.6396 31.5392 19.4788 30.0314 17.9711C28.5237 16.4633 27.3629 14.6447 26.6302 12.6423L24.0002 5.46025L21.3722 12.6423Z" fill="#FFFEF1"/>
</g>
<defs>
<clipPath id="clip0_64_164">
<rect width="48" height="48" fill="white"/>
</clipPath>
</defs>
</svg>
