<svg width="1280" height="832" viewBox="0 0 1280 832" fill="none" xmlns="http://www.w3.org/2000/svg">
<rect width="1280" height="832" fill="white"/>
<path d="M490 307.5L511 267L487 222L499 184.5L536.5 250.5L561 161L584 195L566.5 250.5L606 270.5L626 312.5L617 368L643.5 379.5L684 449.5L689.5 488.5L676 476.5L637 412L656 446V492.5V513L666.5 570L694.5 605L676 621.5L643.5 587L632 526L617 492.5L584 500L566.5 587L594.5 621.5L584 645H557.5L540 605L557.5 488.5L544 420L525 456.5L519 520.5H507L503 492.5L514.5 430.5L544 390L514.5 379.5L499 352.5L490 307.5Z" fill="#D9D9D9"/>
<path d="M748.999 264C725.56 266.818 715.044 273.624 699.999 293.5C688.188 313.083 686.477 325.093 699.999 350C708.45 366.201 714.073 374.352 735.499 377C757.096 383.775 768.859 381.677 789.499 365.5C804.248 342.941 805.33 328.588 792.499 299.5C765.673 272.042 758.989 268.197 748.999 264Z" fill="#777777"/>
<path d="M652 501L575 452.5L678.5 286L751.5 325.5L652 501Z" fill="#F4F4F4"/>
<path d="M763.5 375L733 399.5H751.5L757.5 411L763.5 388.5L800.5 356.5L821.5 305.5L784 334L763.5 375Z" fill="#F4F4F4"/>
<path d="M611 467L571 453L634 281L647.5 276L654 281L647.5 318.5L611 467Z" fill="#A6A6A6"/>
</svg>
